<?xml version="1.0" standalone="no"?>
<!DOCTYPE svg PUBLIC "-//W3C//DTD SVG 20010904//EN"
 "http://www.w3.org/TR/2001/REC-SVG-20010904/DTD/svg10.dtd">
<svg version="1.0" xmlns="http://www.w3.org/2000/svg"
 width="512.000000pt" height="512.000000pt" viewBox="0 0 512.000000 512.000000"
 preserveAspectRatio="xMidYMid meet">

<g transform="translate(0.000000,512.000000) scale(0.100000,-0.100000)"
fill="#000000" stroke="none">
<path d="M1230 4261 c-104 -32 -160 -106 -160 -211 0 -84 53 -161 132 -194 33
-14 187 -16 1358 -16 1447 0 1358 -4 1424 58 81 76 88 220 13 300 -12 13 -40
34 -62 45 l-40 22 -1320 2 c-726 1 -1331 -2 -1345 -6z"/>
<path d="M1179 3387 c-24 -13 -57 -43 -74 -66 -27 -39 -30 -50 -30 -120 0 -68
3 -82 27 -117 15 -21 44 -50 65 -64 l37 -25 570 -5 571 -5 5 -995 c5 -1087 2
-1022 62 -1076 99 -90 246 -75 323 34 l30 44 5 996 5 997 571 5 571 5 39 27
c21 15 50 44 64 65 21 31 25 48 25 113 0 65 -4 82 -25 113 -14 21 -43 50 -64
65 l-39 27 -1347 3 -1346 2 -45 -23z"/>
</g>
</svg>
